<?xml version="1.0" encoding="UTF-8"?>
<svg width="48px" height="48px" viewBox="0 0 48 48" version="1.1" xmlns="http://www.w3.org/2000/svg" xmlns:xlink="http://www.w3.org/1999/xlink">
    <!-- Generator: sketchtool 61.2 (101010) - https://sketch.com -->
    <title>54E45D27-A041-438D-AF85-17A2AA52B7FC</title>
    <desc>Created with sketchtool.</desc>
    <defs>
        <linearGradient x1="13.4977379%" y1="5.2425079%" x2="192.556719%" y2="182.519195%" id="linearGradient-1">
            <stop stop-color="#008AFC" offset="0%"></stop>
            <stop stop-color="#00335D" offset="100%"></stop>
        </linearGradient>
        <path d="M12.2674321,0 L35.629674,0 C42.4047897,0 47.8971061,5.50411517 47.8971061,12.2937853 L47.8971061,35.7062147 C47.8971061,42.4958848 42.4047897,48 35.629674,48 L12.2674321,48 C5.49231642,48 1.42108547e-14,42.4958848 1.42108547e-14,35.7062147 L1.42108547e-14,12.2937853 C1.42108547e-14,5.50411517 5.49231642,0 12.2674321,0 Z" id="path-2"></path>
    </defs>
    <g id="a" stroke="none" stroke-width="1" fill="none" fill-rule="evenodd">
        <g id="Artboard-Copy" transform="translate(-260.000000, -5452.000000)">
            <g id="FOOTER" transform="translate(0.000000, 5338.000000)">
                <g id="Group-3" transform="translate(260.000000, 114.000000)">
                    <g id="Rectangle">
                        <use fill="#0047CC" xlink:href="#path-2"></use>
                        <use fill="url(#linearGradient-1)" xlink:href="#path-2"></use>
                    </g>
                    <path d="M21.607717,36.3157895 C19.3569019,36.3157895 17.3837169,35.7160212 15.6881029,34.5164666 C13.9924888,33.316912 12.8595956,31.8212873 12.2893891,30.0295476 L16.6109325,28.070791 C17.4812477,30.5306371 19.0567946,31.7605417 21.3376206,31.7605417 C22.5080444,31.7605417 23.4008544,31.4872296 24.0160772,30.9405971 C24.6313,30.3939646 24.9389068,29.7866043 24.9389068,29.118498 C24.9389068,28.4503917 24.6237974,27.9493194 23.9935691,27.6152662 C23.3633409,27.2812131 22.3279815,26.9016129 20.8874598,26.4764543 C19.3869164,26.0816642 18.1414841,25.664104 17.1511254,25.2237612 C16.1607668,24.7834183 15.3054698,24.100138 14.585209,23.1738997 C13.8649482,22.2476613 13.5048232,21.0253487 13.5048232,19.5069252 C13.5048232,17.4418692 14.2925966,15.8323644 15.8681672,14.6783626 C17.4437378,13.5243607 19.3719071,12.9473684 21.6527331,12.9473684 C23.5434178,12.9473684 25.208996,13.3725206 26.6495177,14.2228378 C28.0900394,15.073155 29.2304352,16.2726915 30.0707395,17.8214835 L25.8842444,20.1446599 C25.4340814,19.2943427 24.8638834,18.6034704 24.1736334,18.0720222 C23.4833835,17.5405739 22.5830709,17.2748538 21.4726688,17.2748538 C20.6323645,17.2748538 19.9496275,17.4570619 19.4244373,17.8214835 C18.8992471,18.1859052 18.6366559,18.6414254 18.6366559,19.1880579 C18.6366559,19.7954273 18.9592679,20.2661315 19.6045016,20.6001847 C20.2497353,20.9342378 21.2475817,21.28347 22.5980707,21.6478917 C24.1586359,22.1034187 25.4490839,22.5589389 26.4694534,23.014466 C27.4898229,23.469993 28.3751302,24.1684574 29.1254019,25.10988 C29.8756736,26.0513025 30.2508039,27.2812071 30.2508039,28.7996307 C30.2508039,30.4698965 29.8381606,31.8668252 29.0128617,32.9904586 C28.1875629,34.114092 27.1146904,34.9492124 25.7942122,35.4958449 C24.473734,36.0424773 23.0782496,36.3157895 21.607717,36.3157895 Z" id="Path-Copy" fill="#FFFFFF" fill-rule="nonzero"></path>
                    <ellipse id="Oval" fill="#FFFFFF" cx="34.6623794" cy="34.1052632" rx="2.20578778" ry="2.21052632"></ellipse>
                </g>
            </g>
        </g>
    </g>
</svg>