<svg xmlns="http://www.w3.org/2000/svg" width="147" height="36" fill="none" viewBox="0 0 147 36">
    <path fill="#0047CC" fill-rule="evenodd" d="M9.2 0h17.522c5.082 0 9.2 4.128 9.2 9.22v17.56c0 5.092-4.118 9.22-9.2 9.22H9.201C4.119 36 0 31.872 0 26.78V9.22C0 4.128 4.12 0 9.2 0z" clip-rule="evenodd"/>
    <path fill="url(#a)" fill-rule="evenodd" d="M9.2 0h17.522c5.082 0 9.2 4.128 9.2 9.22v17.56c0 5.092-4.118 9.22-9.2 9.22H9.201C4.119 36 0 31.872 0 26.78V9.22C0 4.128 4.12 0 9.2 0z" clip-rule="evenodd"/>
    <path fill="#fff" d="M16.206 27.237c-1.689 0-3.168-.45-4.44-1.35-1.272-.9-2.122-2.021-2.55-3.365l3.242-1.469c.653 1.845 1.834 2.767 3.545 2.767.878 0 1.547-.205 2.009-.615.461-.41.692-.865.692-1.366 0-.501-.236-.877-.71-1.128-.472-.25-1.248-.535-2.329-.854-1.125-.296-2.06-.609-2.802-.94-.743-.33-1.384-.842-1.924-1.537-.54-.694-.81-1.611-.81-2.75 0-1.549.59-2.756 1.772-3.621 1.182-.866 2.628-1.298 4.338-1.298 1.418 0 2.668.318 3.748.956 1.08.638 1.936 1.537 2.566 2.7l-3.14 1.741a4.702 4.702 0 0 0-1.283-1.554c-.518-.399-1.193-.598-2.026-.598-.63 0-1.142.137-1.536.41-.394.273-.59.615-.59 1.025 0 .456.241.809.725 1.06.484.25 1.232.512 2.245.785 1.17.342 2.139.683 2.904 1.025.765.341 1.43.865 1.992 1.571.563.706.844 1.629.844 2.768 0 1.252-.31 2.3-.929 3.143a5.583 5.583 0 0 1-2.414 1.879 8.13 8.13 0 0 1-3.14.615z"/>
    <path fill="#fff" fill-rule="evenodd" d="M25.997 27.237c.914 0 1.654-.742 1.654-1.658 0-.916-.74-1.658-1.654-1.658-.914 0-1.654.742-1.654 1.658 0 .916.74 1.658 1.654 1.658z" clip-rule="evenodd"/>
    <path fill="#008AFC" fill-rule="evenodd" d="M49.146 27.237c-1.653 0-3.101-.45-4.346-1.35-1.245-.9-2.077-2.021-2.495-3.365l3.172-1.469c.64 1.845 1.796 2.767 3.47 2.767.86 0 1.515-.205 1.967-.615.452-.41.678-.865.678-1.366 0-.501-.232-.877-.694-1.128-.463-.25-1.223-.535-2.28-.854-1.102-.296-2.017-.609-2.744-.94-.727-.33-1.355-.842-1.884-1.537-.529-.694-.793-1.611-.793-2.75 0-1.549.578-2.756 1.735-3.621 1.157-.866 2.572-1.298 4.247-1.298 1.388 0 2.611.318 3.669.956 1.057.638 1.894 1.537 2.511 2.7l-3.073 1.741c-.33-.637-.75-1.155-1.256-1.554-.507-.399-1.168-.598-1.983-.598-.617 0-1.118.137-1.504.41-.386.273-.578.615-.578 1.025 0 .456.237.809.71 1.06.474.25 1.207.512 2.198.785 1.146.342 2.093.683 2.842 1.025.75.341 1.4.865 1.95 1.571.551.706.827 1.629.827 2.768 0 1.252-.303 2.3-.91 3.143a5.483 5.483 0 0 1-2.362 1.879c-.97.41-1.994.615-3.074.615zM64.723 9.71c2.214 0 3.96.586 5.237 1.759 1.276 1.173 1.915 2.773 1.915 4.8v10.625h-3.729l-.339-2.186c-.497.797-1.192 1.418-2.084 1.862-.893.444-1.893.666-3 .666-1.152 0-2.186-.234-3.102-.7a5.304 5.304 0 0 1-2.152-1.965c-.52-.843-.78-1.788-.78-2.836 0-1.002.215-1.867.645-2.596.429-.729 1.05-1.276 1.864-1.64 1.084-.501 2.565-.752 4.44-.752h4.17v-.478c0-.911-.283-1.634-.848-2.17-.565-.535-1.333-.802-2.305-.802-.859 0-1.672.216-2.44.649-.769.433-1.458 1.059-2.068 1.879l-2.949-2.494c1.989-2.414 4.497-3.621 7.525-3.621zm1.824 12.78c-.888.774-1.954 1.16-3.199 1.16-.83 0-1.481-.178-1.954-.536-.472-.358-.709-.837-.709-1.437 0-.624.23-1.097.692-1.42l.05-.036c.537-.369 1.455-.553 2.751-.553h3.7c0 1.108-.444 2.049-1.331 2.823zm6.127-12.382h4.388l3.987 11.436 4.053-11.436h4.355l-6.733 16.73h-3.317l-6.733-16.73zm31.467 9.714c.068-.547.101-1.07.101-1.571 0-1.595-.287-3.041-.862-4.34-.574-1.298-1.436-2.322-2.586-3.074-1.15-.752-2.558-1.127-4.225-1.127-1.758 0-3.229.415-4.412 1.246a7.525 7.525 0 0 0-2.637 3.263c-.575 1.344-.862 2.79-.862 4.34 0 1.57.293 3.011.879 4.32a7.215 7.215 0 0 0 2.721 3.161c1.229.797 2.755 1.196 4.58 1.196 1.398 0 2.655-.25 3.77-.752 1.116-.5 2.136-1.264 3.06-2.289l-2.806-2.494c-1.037 1.207-2.367 1.81-3.99 1.81-1.284 0-2.275-.33-2.974-.99-.699-.66-1.093-1.56-1.183-2.699h11.426zm-3.894-3.34c-.022-1.09-.39-1.959-1.104-2.61-.713-.65-1.605-.976-2.675-.976-1.138 0-2.024.35-2.66 1.047-.635.698-1.02 1.544-1.153 2.538h7.592zm27.431-4.957c-.893-1.21-2.289-1.815-4.187-1.815-1.289 0-2.396.313-3.323.942-.927.628-1.639 1.547-2.136 2.757-.724-2.466-2.374-3.7-4.951-3.7-1.062 0-2.011.235-2.848.703-.836.468-1.491 1.193-1.966 2.175V9.95h-1.628l.034 16.889h1.696v-8.77c0-2.101.367-3.768 1.102-5.001.734-1.234 1.87-1.85 3.407-1.85 1.424 0 2.464.508 3.119 1.524.656 1.016.984 2.427.984 4.23v9.866h1.695V18.07c0-2.101.373-3.768 1.119-5.001.746-1.234 1.899-1.85 3.458-1.85 1.628 0 2.713.565 3.255 1.696.543 1.13.814 2.506.814 4.127v9.797h1.695V16.596c0-2.17-.446-3.86-1.339-5.07zm11.513 15.313c-1.519 0-2.866-.366-4.039-1.098-1.173-.732-2.089-1.746-2.748-3.04-.659-1.296-.989-2.777-.989-4.443 0-1.645.33-3.114.989-4.41.659-1.294 1.575-2.308 2.748-3.04 1.173-.732 2.52-1.097 4.039-1.097 1.497 0 2.838.365 4.022 1.098 1.184.731 2.111 1.745 2.782 3.04.67 1.295 1.005 2.764 1.005 4.409 0 1.644-.33 3.119-.989 4.425-.659 1.306-1.58 2.326-2.765 3.058-1.184.732-2.536 1.098-4.055 1.098zm-4.502-3.18c1.116 1.323 2.611 1.985 4.484 1.985 1.241 0 2.336-.308 3.283-.924.948-.616 1.676-1.466 2.183-2.55.508-1.084.762-2.322.762-3.713 0-1.415-.26-2.659-.779-3.73-.519-1.073-1.246-1.912-2.183-2.516-.936-.605-2.025-.907-3.266-.907-1.873 0-3.368.662-4.484 1.985-1.117 1.323-1.676 3.046-1.676 5.168 0 2.144.559 3.878 1.676 5.202z" clip-rule="evenodd"/>
    <defs>
        <linearGradient id="a" x1="-27.049" x2="37.687" y1="34.257" y2="97.937" gradientUnits="userSpaceOnUse">
            <stop stop-color="#008AFC"/>
            <stop offset="1" stop-color="#00335D"/>
        </linearGradient>
    </defs>
</svg>
