<?xml version="1.0" encoding="UTF-8"?>
<svg width="449px" height="258px" viewBox="0 0 449 258" version="1.1" xmlns="http://www.w3.org/2000/svg" xmlns:xlink="http://www.w3.org/1999/xlink">
    <defs>
    <style>
        @font-face {
            font-family: 'HK Grotesk';
            font-weight: 600;
            font-style: normal;
            src: url("/fonts/HKGrotesk-Medium.otf") format("opentype");
        }
    </style>
    </defs>
    <!-- Generator: sketchtool 61.2 (101010) - https://sketch.com -->
    <title>02066A53-DA6F-4FA6-AD7A-8A85C9CDD1D9</title>
    <desc>Created with sketchtool.</desc>
    <defs>
        <rect id="path-1" x="50" y="47" width="393" height="72" rx="6"></rect>
        <filter x="-2.5%" y="-11.1%" width="105.1%" height="127.8%" filterUnits="objectBoundingBox" id="filter-2">
            <feOffset dx="0" dy="2" in="SourceAlpha" result="shadowOffsetOuter1"></feOffset>
            <feGaussianBlur stdDeviation="3" in="shadowOffsetOuter1" result="shadowBlurOuter1"></feGaussianBlur>
            <feColorMatrix values="0 0 0 0 0   0 0 0 0 0   0 0 0 0 0  0 0 0 0.104102928 0" type="matrix" in="shadowBlurOuter1"></feColorMatrix>
        </filter>
        <rect id="path-3" x="50" y="133" width="393" height="72" rx="6"></rect>
        <filter x="-2.5%" y="-11.1%" width="105.1%" height="127.8%" filterUnits="objectBoundingBox" id="filter-4">
            <feOffset dx="0" dy="2" in="SourceAlpha" result="shadowOffsetOuter1"></feOffset>
            <feGaussianBlur stdDeviation="3" in="shadowOffsetOuter1" result="shadowBlurOuter1"></feGaussianBlur>
            <feColorMatrix values="0 0 0 0 0   0 0 0 0 0   0 0 0 0 0  0 0 0 0.104102928 0" type="matrix" in="shadowBlurOuter1"></feColorMatrix>
        </filter>
    </defs>
    <g id="a" stroke="none" stroke-width="1" fill="none" fill-rule="evenodd">
        <g id="Artboard-Copy" transform="translate(-189.000000, -2227.000000)">
            <g id="Group-4" transform="translate(189.000000, 2227.000000)">
                <rect id="Rectangle-Copy-3" fill="#171717" x="25" y="11" width="387" height="247" rx="8"></rect>
                <g id="Rectangle">
                    <use fill="black" fill-opacity="1" filter="url(#filter-2)" xlink:href="#path-1"></use>
                    <use fill="#27292D" fill-rule="evenodd" xlink:href="#path-1"></use>
                </g>
                <rect id="Rectangle" fill="#BC8E00" opacity="0.200000003" x="208" y="85" width="38" height="22" rx="4"></rect>
                <text id="2" font-family="HKGrotesk-Bold, HK Grotesk" font-size="10" font-weight="bold" fill="#FED848">
                    <tspan x="230.8" y="98.8888889">2  </tspan>
                </text>
                <path d="M221.480952,103.333333 C217.808252,103.333333 214.830952,100.050095 214.830952,96 C214.830952,91.9499048 217.808252,88.6666667 221.480952,88.6666667 C225.153652,88.6666667 228.130952,91.9499048 228.130952,96 C228.130952,100.050095 225.153652,103.333333 221.480952,103.333333" id="XMLID_99_" fill="#CDA407" fill-rule="nonzero"></path>
                <path d="M214.830952,96 C214.830952,92.2542381 217.37831,89.166381 220.666667,88.7232381 C220.399581,88.6873571 220.128152,88.6666667 219.852381,88.6666667 C216.179681,88.6666667 213.202381,91.9499048 213.202381,96 C213.202381,100.050095 216.179681,103.333333 219.852381,103.333333 C220.128152,103.333333 220.399581,103.312643 220.666667,103.276762 C217.37831,102.833619 214.830952,99.7457619 214.830952,96" id="XMLID_132_" fill="#F4BF1A" fill-rule="nonzero"></path>
                <path d="M221.504024,101.899143 L221.480681,101.899143 C221.290681,101.899143 221.099324,101.888143 220.912038,101.866667 C220.763024,101.849381 220.656895,101.719214 220.674538,101.575429 C220.692452,101.431643 220.828438,101.331333 220.976367,101.346524 C221.142481,101.365643 221.312124,101.375333 221.480681,101.375333 C221.630781,101.375333 221.763781,101.492667 221.763781,101.637238 C221.763781,101.78181 221.654395,101.899143 221.504024,101.899143 M223.082381,101.617071 C222.972724,101.617071 222.86931,101.552381 222.828324,101.447357 C222.775395,101.311952 222.846238,101.160833 222.986567,101.110024 C223.14291,101.05319 223.298981,100.986405 223.449624,100.911762 C223.583167,100.845238 223.746567,100.89631 223.815238,101.025167 C223.883638,101.153762 223.830981,101.31169 223.697438,101.37769 C223.528338,101.4615 223.35381,101.535881 223.177924,101.600048 C223.14671,101.611571 223.11441,101.617071 223.082381,101.617071 M219.408595,101.416976 C219.367338,101.416976 219.325267,101.40781 219.28591,101.388429 C219.118981,101.306452 218.953681,101.214524 218.794895,101.113952 C218.669495,101.034857 218.634481,100.872738 218.716452,100.751476 C218.798967,100.630738 218.96671,100.59669 219.092381,100.675786 C219.234338,100.765619 219.382267,100.848381 219.531552,100.921452 C219.665095,100.986929 219.718567,101.144595 219.65071,101.273452 C219.602938,101.364595 219.507395,101.416976 219.408595,101.416976 M224.867024,100.485119 C224.798081,100.485119 224.728867,100.459714 224.675938,100.409167 C224.569538,100.307286 224.568724,100.1415 224.67431,100.038833 C224.792381,99.924119 224.907195,99.8005 225.015495,99.6716429 C225.110224,99.5595476 225.281224,99.5425238 225.397395,99.6336667 C225.513567,99.7248095 225.531481,99.8898095 225.436752,100.002167 C225.317052,100.144119 225.190295,100.280571 225.059738,100.407595 C225.006538,100.45919 224.93651,100.485119 224.867024,100.485119 M217.75071,100.116357 C217.672267,100.116357 217.594367,100.083619 217.540624,100.020762 C217.422824,99.8819524 217.309638,99.7352857 217.204595,99.5846905 C217.120724,99.4647381 217.153567,99.3018333 217.277881,99.2209048 C217.401924,99.1399762 217.570752,99.1714048 217.654624,99.291619 C217.750438,99.4288571 217.85331,99.5624286 217.960524,99.6884048 C218.055524,99.8002381 218.038695,99.9652381 217.922795,100.057167 C217.872581,100.096976 217.811238,100.116357 217.75071,100.116357 M226.060224,98.7709524 C226.023852,98.7709524 225.98721,98.763881 225.951924,98.7492143 C225.81431,98.6913333 225.75161,98.5370714 225.811324,98.4042857 C225.879452,98.2539524 225.94161,98.0978571 225.996167,97.9409762 C226.043938,97.8042619 226.197838,97.7301429 226.340067,97.7762381 C226.482024,97.8225952 226.558567,97.9708333 226.510795,98.1080714 C226.451081,98.2790952 226.383224,98.4493333 226.309124,98.6135476 C226.264338,98.7120238 226.164452,98.7709524 226.060224,98.7709524 M216.716024,98.3081667 C216.60311,98.3081667 216.497524,98.2392857 216.458981,98.1305952 C216.398995,97.960881 216.345795,97.7861905 216.300738,97.6112381 C216.264367,97.4708571 216.352852,97.3289048 216.498338,97.2940714 C216.643281,97.2584524 216.79121,97.3443571 216.82731,97.4847381 C216.868838,97.6452857 216.917695,97.8058333 216.972795,97.9614048 C217.02111,98.098381 216.945381,98.2471429 216.803695,98.2937619 C216.774924,98.3034524 216.745067,98.3081667 216.716024,98.3081667 M226.572952,96.7637143 C226.565895,96.7637143 226.558838,96.7634524 226.551781,96.7629286 C226.402224,96.7516667 226.290667,96.6256905 226.302067,96.481381 C226.314824,96.3226667 226.321338,96.1605476 226.321338,96 C226.321338,95.8554286 226.442938,95.7297143 226.592767,95.7297143 C226.742595,95.7297143 226.864195,95.8384048 226.864195,95.9829762 L226.864195,96 C226.864195,96.1741667 226.857138,96.3496429 226.843295,96.5219762 C226.832438,96.6592143 226.713281,96.7637143 226.572952,96.7637143 M216.368867,96.2647857 C216.219038,96.2647857 216.097438,96.1503333 216.097438,96.0057619 L216.097438,96 C216.097438,95.821381 216.104767,95.6417143 216.119152,95.4665 C216.131095,95.3224524 216.26111,95.2155952 216.41121,95.2260714 C216.560767,95.2375952 216.672324,95.3638333 216.660381,95.507881 C216.647081,95.6697381 216.640295,95.8352619 216.640295,96 C216.640295,96.1445714 216.518695,96.2647857 216.368867,96.2647857 M226.394352,94.7030476 C226.273024,94.7030476 226.162552,94.6239524 226.13161,94.5053095 C226.089538,94.3442381 226.04041,94.1839524 225.985038,94.028381 C225.936452,93.8916667 226.012181,93.7426429 226.153867,93.6957619 C226.295824,93.6483571 226.450267,93.7216905 226.498581,93.8586667 C226.558838,94.0278571 226.61231,94.2022857 226.65791,94.3769762 C226.694552,94.5173571 226.606338,94.6595714 226.461124,94.6949286 C226.439138,94.7006905 226.416881,94.7030476 226.394352,94.7030476 M216.712495,94.2271667 C216.683452,94.2271667 216.654138,94.2224524 216.625095,94.2130238 C216.483138,94.1666667 216.407138,94.0179048 216.455181,93.8809286 C216.515167,93.7106905 216.583295,93.5407143 216.657938,93.3759762 C216.718195,93.2431905 216.877795,93.1832143 217.01541,93.2408333 C217.152752,93.2987143 217.215452,93.4532381 217.155467,93.5857619 C217.086795,93.736881 217.024367,93.8929762 216.969538,94.0490714 C216.930724,94.1582857 216.825681,94.2271667 216.712495,94.2271667 M225.525781,92.8147143 C225.438652,92.8147143 225.353424,92.774381 225.300767,92.6994762 C225.204681,92.5627619 225.101538,92.4294524 224.994052,92.3034762 C224.898781,92.1919048 224.915338,92.0266429 225.030967,91.9347143 C225.146595,91.8427857 225.317867,91.8587619 225.413138,91.9703333 C225.53121,92.108881 225.644667,92.2552857 225.750252,92.405881 C225.834395,92.5255714 225.801824,92.6884762 225.677781,92.7696667 C225.631095,92.8000476 225.578438,92.8147143 225.525781,92.8147143 M217.742838,92.4163571 C217.682581,92.4163571 217.621781,92.3969762 217.571295,92.3571667 C217.455124,92.2657619 217.438024,92.1007619 217.533024,91.9886667 C217.652724,91.8472381 217.779752,91.7110476 217.910581,91.5840238 C218.016438,91.481881 218.188252,91.4810952 218.294381,91.5829762 C218.400781,91.685119 218.401324,91.8506429 218.295738,91.9533095 C218.177395,92.0682857 218.062038,92.1916429 217.953195,92.3202381 C217.899995,92.383619 217.821824,92.4163571 217.742838,92.4163571 M224.007952,91.360881 C223.957195,91.360881 223.905895,91.3472619 223.860295,91.3184524 C223.718338,91.2291429 223.570138,91.1469048 223.420038,91.0738333 C223.286495,91.008619 223.232752,90.8512143 223.300338,90.7220952 C223.367924,90.5935 223.530781,90.5408571 223.664867,90.6063333 C223.83261,90.6877857 223.99791,90.7797143 224.156424,90.8795 C224.282095,90.9585952 224.317652,91.1209762 224.235681,91.2419762 C224.183567,91.3192381 224.096981,91.360881 224.007952,91.360881 M219.398824,91.1120714 C219.300024,91.1120714 219.204752,91.0599524 219.15671,90.9690714 C219.088581,90.8402143 219.141781,90.6825476 219.275324,90.6168095 C219.444424,90.5337857 219.619224,90.4591429 219.795381,90.3957619 C219.935438,90.3449524 220.092052,90.4135714 220.14471,90.5492381 C220.197095,90.6846429 220.125981,90.8355 219.985381,90.8863095 C219.828495,90.942881 219.672424,91.0091429 219.52151,91.0835238 C219.482424,91.1029048 219.440081,91.1120714 219.398824,91.1120714 M222.006167,90.654 C221.995581,90.654 221.984995,90.6534762 221.97441,90.6521667 C221.81101,90.6338333 221.644895,90.6246667 221.480681,90.6246667 C221.330852,90.6246667 221.203552,90.5073333 221.203552,90.3627619 C221.203552,90.2181905 221.319452,90.1008571 221.469281,90.1008571 L221.480681,90.1008571 C221.665795,90.1008571 221.853081,90.1113333 222.03711,90.1320238 C222.185852,90.1485238 222.292795,90.2784286 222.275424,90.4222143 C222.259681,90.5557857 222.141881,90.654 222.006167,90.654" id="XMLID_115_" fill="#876B16" fill-rule="nonzero"></path>
                <path d="M214.83041,96.2619048 L213.202381,96.2619048 C213.20781,96.4381667 213.218124,96.6128571 213.234681,96.7857143 L214.864067,96.7857143 C214.847238,96.6128571 214.83611,96.4381667 214.83041,96.2619048" id="XMLID_114_" fill="#DCA815" fill-rule="nonzero"></path>
                <path d="M214.892567,94.952381 L213.265081,94.952381 C213.242552,95.1249762 213.226267,95.2999286 213.215138,95.4761905 L214.843438,95.4761905 C214.854838,95.2999286 214.870038,95.1249762 214.892567,94.952381" id="XMLID_113_" fill="#DCA815" fill-rule="nonzero"></path>
                <path d="M214.979695,97.5714286 L213.350852,97.5714286 C213.386138,97.7484762 213.426852,97.9231667 213.473267,98.0952381 L215.101567,98.0952381 C215.055424,97.9231667 215.014981,97.7484762 214.979695,97.5714286" id="XMLID_112_" fill="#DCA815" fill-rule="nonzero"></path>
                <path d="M215.359424,98.8809524 L213.729767,98.8809524 C213.798981,99.0595714 213.875524,99.2337381 213.956952,99.4047619 L215.585795,99.4047619 C215.504367,99.234 215.428638,99.0593095 215.359424,98.8809524" id="XMLID_111_" fill="#DCA815" fill-rule="nonzero"></path>
                <path d="M215.17621,93.6428571 L213.549538,93.6428571 C213.49661,93.8149286 213.44721,93.9890952 213.405952,94.1666667 L215.036424,94.1666667 C215.077681,93.989619 215.123552,93.8144048 215.17621,93.6428571" id="XMLID_110_" fill="#DCA815" fill-rule="nonzero"></path>
                <path d="M215.716895,92.3333333 L214.088324,92.3333333 C213.998752,92.5038333 213.914338,92.6782619 213.837252,92.8571429 L215.46691,92.8571429 C215.543995,92.6785238 215.627324,92.5038333 215.716895,92.3333333" id="XMLID_109_" fill="#DCA815" fill-rule="nonzero"></path>
                <path d="M216.824595,90.7619048 L215.194124,90.7619048 C215.039681,90.9284762 214.892838,91.1031667 214.753867,91.2857143 L216.383795,91.2857143 C216.523038,91.1031667 216.670152,90.9284762 216.824595,90.7619048" id="XMLID_108_" fill="#DCA815" fill-rule="nonzero"></path>
                <path d="M218.484381,89.452381 L216.852281,89.452381 C216.574881,89.6069048 216.308881,89.7818571 216.055367,89.9761905 L217.686381,89.9761905 C217.940167,89.7818571 218.20671,89.6069048 218.484381,89.452381" id="XMLID_107_" fill="#DCA815" fill-rule="nonzero"></path>
                <path d="M216.193252,100.452381 L214.563867,100.452381 C214.68981,100.633881 214.82281,100.808571 214.96341,100.97619 L216.593881,100.97619 C216.453281,100.808571 216.319467,100.633881 216.193252,100.452381" id="XMLID_106_" fill="#DCA815" fill-rule="nonzero"></path>
                <path d="M215.735352,101.761905 C215.95331,101.951262 216.181581,102.127 216.420438,102.285714 L218.05281,102.285714 C217.812867,102.126738 217.582152,101.952048 217.363381,101.761905 L215.735352,101.761905 Z" id="XMLID_105_" fill="#DCA815" fill-rule="nonzero"></path>
                <text id="HP-Petrol-Pump" font-family="HKGrotesk-Medium, HK Grotesk" font-size="16" font-weight="400" fill="#FFFFFF">
                    <tspan x="121" y="75">HP Petrol Pump</tspan>
                </text>
                <text id="₹98" font-family="PingFangSC-Medium, PingFang SC" font-size="16" font-weight="400" fill="#FF5F5F">
                    <tspan x="360.064" y="72">₹</tspan>
                    <tspan x="369.664" y="72" font-family="HKGrotesk-Medium, HK Grotesk">98</tspan>
                </text>
                <text id="Today,-11:43AM" opacity="0.5" font-family="HKGrotesk-SemiBold, HK Grotesk" font-size="10" font-weight="500" fill="#FFFFFF">
                    <tspan x="121" y="99">Today, 11:43AM</tspan>
                </text>
                <rect id="Rectangle-Copy-5" fill="#D8D8D8" opacity="0.200000003" x="397" y="59" width="35" height="34" rx="4"></rect>
                <polygon id="Path" fill="#FFFFFF" fill-rule="nonzero" points="416.6875 67.5 419.203125 69.94375 416.03125 73.025 417.5625 74.5125 420.734375 71.43125 423.25 73.875 423.25 67.5"></polygon>
                <polygon id="Path" fill="#FFFFFF" fill-rule="nonzero" points="412.3125 67.5 405.75 67.5 405.75 73.875 408.265625 71.43125 413.40625 76.425 413.40625 84.5 415.59375 84.5 415.59375 75.575 409.796875 69.94375"></polygon>
                <rect id="Rectangle-Copy-6" fill="#277BAA" opacity="0.300000012" x="60" y="59" width="48" height="48" rx="4"></rect>
                <path d="M94.9902197,77.276 L95.0091197,77.258 L90.3156,72.8000188 L88.9800197,74.072 L91.6386,76.6039813 C90.4542197,77.0359813 89.6099803,78.122 89.6099803,79.4 C89.6099803,81.056 91.0211606,82.3999812 92.7599606,82.3999812 C93.2072409,82.3999812 93.6356803,82.3099813 94.0199409,82.1479813 L94.0199409,90.7999625 C94.02,91.46 93.453,92 92.7600197,92 C92.0670394,92 91.5000394,91.46 91.5000394,90.8000188 L91.5000394,85.4000188 C91.5000394,84.0740375 90.3723591,83 88.9800197,83 L87.7200394,83 L87.7200394,74.6000188 C87.7199803,73.2739813 86.5923,72.2 85.2000197,72.2 L77.6400197,72.2 C76.2476803,72.2 75.12,73.2739813 75.12,74.6000188 L75.12,93.8 L87.7199803,93.8 L87.7199803,84.8 L89.6099803,84.8 L89.6099803,90.8000188 C89.6099803,92.4560187 91.0211606,93.8 92.7599606,93.8 C94.4987606,93.8 95.9099409,92.4560187 95.9099409,90.8000188 L95.9099409,79.4 C95.9099409,78.572 95.5572197,77.8220187 94.9902197,77.276 Z M85.2000197,80.5999812 L77.6400197,80.5999812 L77.6400197,74.6000188 L85.2000197,74.6000188 L85.2000197,80.5999812 Z M92.7600197,80.5999812 C92.0670394,80.5999812 91.5000394,80.0599813 91.5000394,79.4 C91.5000394,78.7400188 92.0670394,78.2000187 92.7600197,78.2000187 C93.453,78.2000187 94.02,78.7400188 94.02,79.4 C94.02,80.0599813 93.453,80.5999812 92.7600197,80.5999812 Z" id="Shape" fill="#277BAA" fill-rule="nonzero"></path>
                <g id="Rectangle">
                    <use fill="black" fill-opacity="1" filter="url(#filter-4)" xlink:href="#path-3"></use>
                    <use fill="#27292D" fill-rule="evenodd" xlink:href="#path-3"></use>
                </g>
                <rect id="Rectangle" fill="#BC8E00" opacity="0.200000003" x="208" y="171" width="38" height="22" rx="4"></rect>
                <text id="5" font-family="HKGrotesk-Bold, HK Grotesk" font-size="10" font-weight="bold" fill="#FED848">
                    <tspan x="230.8" y="184.888889">5  </tspan>
                </text>
                <path d="M221.480952,189.333333 C217.808252,189.333333 214.830952,186.050095 214.830952,182 C214.830952,177.949905 217.808252,174.666667 221.480952,174.666667 C225.153652,174.666667 228.130952,177.949905 228.130952,182 C228.130952,186.050095 225.153652,189.333333 221.480952,189.333333" id="XMLID_99_" fill="#CDA407" fill-rule="nonzero"></path>
                <path d="M214.830952,182 C214.830952,178.254238 217.37831,175.166381 220.666667,174.723238 C220.399581,174.687357 220.128152,174.666667 219.852381,174.666667 C216.179681,174.666667 213.202381,177.949905 213.202381,182 C213.202381,186.050095 216.179681,189.333333 219.852381,189.333333 C220.128152,189.333333 220.399581,189.312643 220.666667,189.276762 C217.37831,188.833619 214.830952,185.745762 214.830952,182" id="XMLID_132_" fill="#F4BF1A" fill-rule="nonzero"></path>
                <path d="M221.504024,187.899143 L221.480681,187.899143 C221.290681,187.899143 221.099324,187.888143 220.912038,187.866667 C220.763024,187.849381 220.656895,187.719214 220.674538,187.575429 C220.692452,187.431643 220.828438,187.331333 220.976367,187.346524 C221.142481,187.365643 221.312124,187.375333 221.480681,187.375333 C221.630781,187.375333 221.763781,187.492667 221.763781,187.637238 C221.763781,187.78181 221.654395,187.899143 221.504024,187.899143 M223.082381,187.617071 C222.972724,187.617071 222.86931,187.552381 222.828324,187.447357 C222.775395,187.311952 222.846238,187.160833 222.986567,187.110024 C223.14291,187.05319 223.298981,186.986405 223.449624,186.911762 C223.583167,186.845238 223.746567,186.89631 223.815238,187.025167 C223.883638,187.153762 223.830981,187.31169 223.697438,187.37769 C223.528338,187.4615 223.35381,187.535881 223.177924,187.600048 C223.14671,187.611571 223.11441,187.617071 223.082381,187.617071 M219.408595,187.416976 C219.367338,187.416976 219.325267,187.40781 219.28591,187.388429 C219.118981,187.306452 218.953681,187.214524 218.794895,187.113952 C218.669495,187.034857 218.634481,186.872738 218.716452,186.751476 C218.798967,186.630738 218.96671,186.59669 219.092381,186.675786 C219.234338,186.765619 219.382267,186.848381 219.531552,186.921452 C219.665095,186.986929 219.718567,187.144595 219.65071,187.273452 C219.602938,187.364595 219.507395,187.416976 219.408595,187.416976 M224.867024,186.485119 C224.798081,186.485119 224.728867,186.459714 224.675938,186.409167 C224.569538,186.307286 224.568724,186.1415 224.67431,186.038833 C224.792381,185.924119 224.907195,185.8005 225.015495,185.671643 C225.110224,185.559548 225.281224,185.542524 225.397395,185.633667 C225.513567,185.72481 225.531481,185.88981 225.436752,186.002167 C225.317052,186.144119 225.190295,186.280571 225.059738,186.407595 C225.006538,186.45919 224.93651,186.485119 224.867024,186.485119 M217.75071,186.116357 C217.672267,186.116357 217.594367,186.083619 217.540624,186.020762 C217.422824,185.881952 217.309638,185.735286 217.204595,185.58469 C217.120724,185.464738 217.153567,185.301833 217.277881,185.220905 C217.401924,185.139976 217.570752,185.171405 217.654624,185.291619 C217.750438,185.428857 217.85331,185.562429 217.960524,185.688405 C218.055524,185.800238 218.038695,185.965238 217.922795,186.057167 C217.872581,186.096976 217.811238,186.116357 217.75071,186.116357 M226.060224,184.770952 C226.023852,184.770952 225.98721,184.763881 225.951924,184.749214 C225.81431,184.691333 225.75161,184.537071 225.811324,184.404286 C225.879452,184.253952 225.94161,184.097857 225.996167,183.940976 C226.043938,183.804262 226.197838,183.730143 226.340067,183.776238 C226.482024,183.822595 226.558567,183.970833 226.510795,184.108071 C226.451081,184.279095 226.383224,184.449333 226.309124,184.613548 C226.264338,184.712024 226.164452,184.770952 226.060224,184.770952 M216.716024,184.308167 C216.60311,184.308167 216.497524,184.239286 216.458981,184.130595 C216.398995,183.960881 216.345795,183.78619 216.300738,183.611238 C216.264367,183.470857 216.352852,183.328905 216.498338,183.294071 C216.643281,183.258452 216.79121,183.344357 216.82731,183.484738 C216.868838,183.645286 216.917695,183.805833 216.972795,183.961405 C217.02111,184.098381 216.945381,184.247143 216.803695,184.293762 C216.774924,184.303452 216.745067,184.308167 216.716024,184.308167 M226.572952,182.763714 C226.565895,182.763714 226.558838,182.763452 226.551781,182.762929 C226.402224,182.751667 226.290667,182.62569 226.302067,182.481381 C226.314824,182.322667 226.321338,182.160548 226.321338,182 C226.321338,181.855429 226.442938,181.729714 226.592767,181.729714 C226.742595,181.729714 226.864195,181.838405 226.864195,181.982976 L226.864195,182 C226.864195,182.174167 226.857138,182.349643 226.843295,182.521976 C226.832438,182.659214 226.713281,182.763714 226.572952,182.763714 M216.368867,182.264786 C216.219038,182.264786 216.097438,182.150333 216.097438,182.005762 L216.097438,182 C216.097438,181.821381 216.104767,181.641714 216.119152,181.4665 C216.131095,181.322452 216.26111,181.215595 216.41121,181.226071 C216.560767,181.237595 216.672324,181.363833 216.660381,181.507881 C216.647081,181.669738 216.640295,181.835262 216.640295,182 C216.640295,182.144571 216.518695,182.264786 216.368867,182.264786 M226.394352,180.703048 C226.273024,180.703048 226.162552,180.623952 226.13161,180.50531 C226.089538,180.344238 226.04041,180.183952 225.985038,180.028381 C225.936452,179.891667 226.012181,179.742643 226.153867,179.695762 C226.295824,179.648357 226.450267,179.72169 226.498581,179.858667 C226.558838,180.027857 226.61231,180.202286 226.65791,180.376976 C226.694552,180.517357 226.606338,180.659571 226.461124,180.694929 C226.439138,180.70069 226.416881,180.703048 226.394352,180.703048 M216.712495,180.227167 C216.683452,180.227167 216.654138,180.222452 216.625095,180.213024 C216.483138,180.166667 216.407138,180.017905 216.455181,179.880929 C216.515167,179.71069 216.583295,179.540714 216.657938,179.375976 C216.718195,179.24319 216.877795,179.183214 217.01541,179.240833 C217.152752,179.298714 217.215452,179.453238 217.155467,179.585762 C217.086795,179.736881 217.024367,179.892976 216.969538,180.049071 C216.930724,180.158286 216.825681,180.227167 216.712495,180.227167 M225.525781,178.814714 C225.438652,178.814714 225.353424,178.774381 225.300767,178.699476 C225.204681,178.562762 225.101538,178.429452 224.994052,178.303476 C224.898781,178.191905 224.915338,178.026643 225.030967,177.934714 C225.146595,177.842786 225.317867,177.858762 225.413138,177.970333 C225.53121,178.108881 225.644667,178.255286 225.750252,178.405881 C225.834395,178.525571 225.801824,178.688476 225.677781,178.769667 C225.631095,178.800048 225.578438,178.814714 225.525781,178.814714 M217.742838,178.416357 C217.682581,178.416357 217.621781,178.396976 217.571295,178.357167 C217.455124,178.265762 217.438024,178.100762 217.533024,177.988667 C217.652724,177.847238 217.779752,177.711048 217.910581,177.584024 C218.016438,177.481881 218.188252,177.481095 218.294381,177.582976 C218.400781,177.685119 218.401324,177.850643 218.295738,177.95331 C218.177395,178.068286 218.062038,178.191643 217.953195,178.320238 C217.899995,178.383619 217.821824,178.416357 217.742838,178.416357 M224.007952,177.360881 C223.957195,177.360881 223.905895,177.347262 223.860295,177.318452 C223.718338,177.229143 223.570138,177.146905 223.420038,177.073833 C223.286495,177.008619 223.232752,176.851214 223.300338,176.722095 C223.367924,176.5935 223.530781,176.540857 223.664867,176.606333 C223.83261,176.687786 223.99791,176.779714 224.156424,176.8795 C224.282095,176.958595 224.317652,177.120976 224.235681,177.241976 C224.183567,177.319238 224.096981,177.360881 224.007952,177.360881 M219.398824,177.112071 C219.300024,177.112071 219.204752,177.059952 219.15671,176.969071 C219.088581,176.840214 219.141781,176.682548 219.275324,176.61681 C219.444424,176.533786 219.619224,176.459143 219.795381,176.395762 C219.935438,176.344952 220.092052,176.413571 220.14471,176.549238 C220.197095,176.684643 220.125981,176.8355 219.985381,176.88631 C219.828495,176.942881 219.672424,177.009143 219.52151,177.083524 C219.482424,177.102905 219.440081,177.112071 219.398824,177.112071 M222.006167,176.654 C221.995581,176.654 221.984995,176.653476 221.97441,176.652167 C221.81101,176.633833 221.644895,176.624667 221.480681,176.624667 C221.330852,176.624667 221.203552,176.507333 221.203552,176.362762 C221.203552,176.21819 221.319452,176.100857 221.469281,176.100857 L221.480681,176.100857 C221.665795,176.100857 221.853081,176.111333 222.03711,176.132024 C222.185852,176.148524 222.292795,176.278429 222.275424,176.422214 C222.259681,176.555786 222.141881,176.654 222.006167,176.654" id="XMLID_115_" fill="#876B16" fill-rule="nonzero"></path>
                <path d="M214.83041,182.261905 L213.202381,182.261905 C213.20781,182.438167 213.218124,182.612857 213.234681,182.785714 L214.864067,182.785714 C214.847238,182.612857 214.83611,182.438167 214.83041,182.261905" id="XMLID_114_" fill="#DCA815" fill-rule="nonzero"></path>
                <path d="M214.892567,180.952381 L213.265081,180.952381 C213.242552,181.124976 213.226267,181.299929 213.215138,181.47619 L214.843438,181.47619 C214.854838,181.299929 214.870038,181.124976 214.892567,180.952381" id="XMLID_113_" fill="#DCA815" fill-rule="nonzero"></path>
                <path d="M214.979695,183.571429 L213.350852,183.571429 C213.386138,183.748476 213.426852,183.923167 213.473267,184.095238 L215.101567,184.095238 C215.055424,183.923167 215.014981,183.748476 214.979695,183.571429" id="XMLID_112_" fill="#DCA815" fill-rule="nonzero"></path>
                <path d="M215.359424,184.880952 L213.729767,184.880952 C213.798981,185.059571 213.875524,185.233738 213.956952,185.404762 L215.585795,185.404762 C215.504367,185.234 215.428638,185.05931 215.359424,184.880952" id="XMLID_111_" fill="#DCA815" fill-rule="nonzero"></path>
                <path d="M215.17621,179.642857 L213.549538,179.642857 C213.49661,179.814929 213.44721,179.989095 213.405952,180.166667 L215.036424,180.166667 C215.077681,179.989619 215.123552,179.814405 215.17621,179.642857" id="XMLID_110_" fill="#DCA815" fill-rule="nonzero"></path>
                <path d="M215.716895,178.333333 L214.088324,178.333333 C213.998752,178.503833 213.914338,178.678262 213.837252,178.857143 L215.46691,178.857143 C215.543995,178.678524 215.627324,178.503833 215.716895,178.333333" id="XMLID_109_" fill="#DCA815" fill-rule="nonzero"></path>
                <path d="M216.824595,176.761905 L215.194124,176.761905 C215.039681,176.928476 214.892838,177.103167 214.753867,177.285714 L216.383795,177.285714 C216.523038,177.103167 216.670152,176.928476 216.824595,176.761905" id="XMLID_108_" fill="#DCA815" fill-rule="nonzero"></path>
                <path d="M218.484381,175.452381 L216.852281,175.452381 C216.574881,175.606905 216.308881,175.781857 216.055367,175.97619 L217.686381,175.97619 C217.940167,175.781857 218.20671,175.606905 218.484381,175.452381" id="XMLID_107_" fill="#DCA815" fill-rule="nonzero"></path>
                <path d="M216.193252,186.452381 L214.563867,186.452381 C214.68981,186.633881 214.82281,186.808571 214.96341,186.97619 L216.593881,186.97619 C216.453281,186.808571 216.319467,186.633881 216.193252,186.452381" id="XMLID_106_" fill="#DCA815" fill-rule="nonzero"></path>
                <path d="M215.735352,187.761905 C215.95331,187.951262 216.181581,188.127 216.420438,188.285714 L218.05281,188.285714 C217.812867,188.126738 217.582152,187.952048 217.363381,187.761905 L215.735352,187.761905 Z" id="XMLID_105_" fill="#DCA815" fill-rule="nonzero"></path>
                <rect id="Rectangle" fill="#83660E" x="385" y="215" width="59" height="34" rx="4"></rect>
                <text id="5" font-family="HKGrotesk-Bold, HK Grotesk" font-size="16" font-weight="bold" fill="#FED848">
                    <tspan x="423" y="237">5  </tspan>
                </text>
                <path d="M406.285714,244 C400.486714,244 395.785714,238.851286 395.785714,232.5 C395.785714,226.148714 400.486714,221 406.285714,221 C412.084714,221 416.785714,226.148714 416.785714,232.5 C416.785714,238.851286 412.084714,244 406.285714,244" id="XMLID_99_" fill="#CDA407" fill-rule="nonzero"></path>
                <path d="M395.785714,232.5 C395.785714,226.625964 399.807857,221.783643 405,221.088714 C404.578286,221.032446 404.149714,221 403.714286,221 C397.915286,221 393.214286,226.148714 393.214286,232.5 C393.214286,238.851286 397.915286,244 403.714286,244 C404.149714,244 404.578286,243.967554 405,243.911286 C399.807857,243.216357 395.785714,238.374036 395.785714,232.5" id="XMLID_132_" fill="#F4BF1A" fill-rule="nonzero"></path>
                <path d="M406.322143,241.750929 L406.285286,241.750929 C405.985286,241.750929 405.683143,241.733679 405.387429,241.7 C405.152143,241.672893 404.984571,241.468768 405.012429,241.243286 C405.040714,241.017804 405.255429,240.8605 405.489,240.884321 C405.751286,240.914304 406.019143,240.9295 406.285286,240.9295 C406.522286,240.9295 406.732286,241.1135 406.732286,241.340214 C406.732286,241.566929 406.559571,241.750929 406.322143,241.750929 M408.814286,241.308589 C408.641143,241.308589 408.477857,241.207143 408.413143,241.042446 C408.329571,240.830107 408.441429,240.593125 408.663,240.513446 C408.909857,240.424321 409.156286,240.319589 409.394143,240.202536 C409.605,240.098214 409.863,240.178304 409.971429,240.380375 C410.079429,240.582036 409.996286,240.829696 409.785429,240.933196 C409.518429,241.064625 409.242857,241.181268 408.965143,241.281893 C408.915857,241.299964 408.864857,241.308589 408.814286,241.308589 M403.013571,240.994804 C402.948429,240.994804 402.882,240.980429 402.819857,240.950036 C402.556286,240.821482 402.295286,240.677321 402.044571,240.519607 C401.846571,240.395571 401.791286,240.141339 401.920714,239.951179 C402.051,239.761839 402.315857,239.708446 402.514286,239.832482 C402.738429,239.973357 402.972,240.103143 403.207714,240.217732 C403.418571,240.320411 403.503,240.567661 403.395857,240.769732 C403.320429,240.912661 403.169571,240.994804 403.013571,240.994804 M411.632143,239.533482 C411.523286,239.533482 411.414,239.493643 411.330429,239.414375 C411.162429,239.254607 411.161143,238.994625 411.327857,238.833625 C411.514286,238.653732 411.695571,238.459875 411.866571,238.257804 C412.016143,238.082018 412.286143,238.055321 412.469571,238.19825 C412.653,238.341179 412.681286,238.599929 412.531714,238.776125 C412.342714,238.998732 412.142571,239.212714 411.936429,239.411911 C411.852429,239.492821 411.741857,239.533482 411.632143,239.533482 M400.395857,238.955196 C400.272,238.955196 400.149,238.903857 400.064143,238.805286 C399.878143,238.587607 399.699429,238.357607 399.533571,238.121446 C399.401143,237.933339 399.453,237.677875 399.649286,237.550964 C399.845143,237.424054 400.111714,237.473339 400.244143,237.661857 C400.395429,237.877071 400.557857,238.086536 400.727143,238.284089 C400.877143,238.459464 400.850571,238.718214 400.667571,238.862375 C400.588286,238.924804 400.491429,238.955196 400.395857,238.955196 M413.516143,236.845357 C413.458714,236.845357 413.400857,236.834268 413.345143,236.811268 C413.127857,236.7205 413.028857,236.478589 413.123143,236.270357 C413.230714,236.034607 413.328857,235.789821 413.415,235.543804 C413.490429,235.329411 413.733429,235.213179 413.958,235.285464 C414.182143,235.358161 414.303,235.590625 414.227571,235.805839 C414.133286,236.074036 414.026143,236.341 413.909143,236.598518 C413.838429,236.752946 413.680714,236.845357 413.516143,236.845357 M398.762143,236.119625 C398.583857,236.119625 398.417143,236.011607 398.356286,235.841161 C398.261571,235.575018 398.177571,235.301071 398.106429,235.026714 C398.049,234.806571 398.188714,234.583964 398.418429,234.529339 C398.647286,234.473482 398.880857,234.608196 398.937857,234.828339 C399.003429,235.080107 399.080571,235.331875 399.167571,235.575839 C399.243857,235.790643 399.124286,236.023929 398.900571,236.097036 C398.855143,236.112232 398.808,236.119625 398.762143,236.119625 M414.325714,233.697643 C414.314571,233.697643 414.303429,233.697232 414.292286,233.696411 C414.056143,233.67875 413.88,233.481196 413.898,233.254893 C413.918143,233.006 413.928429,232.751768 413.928429,232.5 C413.928429,232.273286 414.120429,232.076143 414.357,232.076143 C414.593571,232.076143 414.785571,232.246589 414.785571,232.473304 L414.785571,232.5 C414.785571,232.773125 414.774429,233.048304 414.752571,233.318554 C414.735429,233.533768 414.547286,233.697643 414.325714,233.697643 M398.214,232.915232 C397.977429,232.915232 397.785429,232.73575 397.785429,232.509036 L397.785429,232.5 C397.785429,232.219893 397.797,231.938143 397.819714,231.663375 C397.838571,231.437482 398.043857,231.269911 398.280857,231.286339 C398.517,231.304411 398.693143,231.502375 398.674286,231.728268 C398.653286,231.982089 398.642571,232.241661 398.642571,232.5 C398.642571,232.726714 398.450571,232.915232 398.214,232.915232 M414.043714,230.466143 C413.852143,230.466143 413.677714,230.342107 413.628857,230.156054 C413.562429,229.903464 413.484857,229.652107 413.397429,229.408143 C413.320714,229.19375 413.440286,228.960054 413.664,228.886536 C413.888143,228.812196 414.132,228.927196 414.208286,229.142 C414.303429,229.407321 414.387857,229.680857 414.459857,229.954804 C414.517714,230.174946 414.378429,230.397964 414.149143,230.453411 C414.114429,230.462446 414.079286,230.466143 414.043714,230.466143 M398.756571,229.719875 C398.710714,229.719875 398.664429,229.712482 398.618571,229.697696 C398.394429,229.625 398.274429,229.391714 398.350286,229.176911 C398.445,228.909946 398.552571,228.643393 398.670429,228.385054 C398.765571,228.176821 399.017571,228.082768 399.234857,228.173125 C399.451714,228.263893 399.550714,228.506214 399.456,228.714036 C399.347571,228.951018 399.249,229.195804 399.162429,229.440589 C399.101143,229.611857 398.935286,229.719875 398.756571,229.719875 M412.672286,227.504893 C412.534714,227.504893 412.400143,227.441643 412.317,227.324179 C412.165286,227.109786 412.002429,226.900732 411.832714,226.703179 C411.682286,226.528214 411.708429,226.269054 411.891,226.124893 C412.073571,225.980732 412.344,226.005786 412.494429,226.18075 C412.680857,226.398018 412.86,226.627607 413.026714,226.863768 C413.159571,227.051464 413.108143,227.306929 412.912286,227.43425 C412.838571,227.481893 412.755429,227.504893 412.672286,227.504893 M400.383429,226.880196 C400.288286,226.880196 400.192286,226.849804 400.112571,226.787375 C399.929143,226.644036 399.902143,226.385286 400.052143,226.2095 C400.241143,225.987714 400.441714,225.774143 400.648286,225.574946 C400.815429,225.414768 401.086714,225.413536 401.254286,225.573304 C401.422286,225.733482 401.423143,225.993054 401.256429,226.154054 C401.069571,226.334357 400.887429,226.527804 400.715571,226.729464 C400.631571,226.828857 400.508143,226.880196 400.383429,226.880196 M410.275714,225.225018 C410.195571,225.225018 410.114571,225.203661 410.042571,225.158482 C409.818429,225.018429 409.584429,224.889464 409.347429,224.774875 C409.136571,224.672607 409.051714,224.425768 409.158429,224.223286 C409.265143,224.021625 409.522286,223.939071 409.734,224.04175 C409.998857,224.169482 410.259857,224.313643 410.510143,224.470125 C410.708571,224.594161 410.764714,224.848804 410.635286,225.038554 C410.553,225.159714 410.416286,225.225018 410.275714,225.225018 M402.998143,224.834839 C402.842143,224.834839 402.691714,224.753107 402.615857,224.610589 C402.508286,224.408518 402.592286,224.161268 402.803143,224.058179 C403.070143,223.927982 403.346143,223.810929 403.624286,223.711536 C403.845429,223.631857 404.092714,223.739464 404.175857,223.952214 C404.258571,224.164554 404.146286,224.401125 403.924286,224.480804 C403.676571,224.569518 403.430143,224.673429 403.191857,224.790071 C403.130143,224.820464 403.063286,224.834839 402.998143,224.834839 M407.115,224.1165 C407.098286,224.1165 407.081571,224.115679 407.064857,224.113625 C406.806857,224.084875 406.544571,224.0705 406.285286,224.0705 C406.048714,224.0705 405.847714,223.8865 405.847714,223.659786 C405.847714,223.433071 406.030714,223.249071 406.267286,223.249071 L406.285286,223.249071 C406.577571,223.249071 406.873286,223.2655 407.163857,223.297946 C407.398714,223.323821 407.567571,223.527536 407.540143,223.753018 C407.515286,223.962482 407.329286,224.1165 407.115,224.1165" id="XMLID_115_" fill="#876B16" fill-rule="nonzero"></path>
                <path d="M395.784857,232.910714 L393.214286,232.910714 C393.222857,233.187125 393.239143,233.461071 393.265286,233.732143 L395.838,233.732143 C395.811429,233.461071 395.793857,233.187125 395.784857,232.910714" id="XMLID_114_" fill="#DCA815" fill-rule="nonzero"></path>
                <path d="M395.883,230.857143 L393.313286,230.857143 C393.277714,231.127804 393.252,231.402161 393.234429,231.678571 L395.805429,231.678571 C395.823429,231.402161 395.847429,231.127804 395.883,230.857143" id="XMLID_113_" fill="#DCA815" fill-rule="nonzero"></path>
                <path d="M396.020571,234.964286 L393.448714,234.964286 C393.504429,235.241929 393.568714,235.515875 393.642,235.785714 L396.213,235.785714 C396.140143,235.515875 396.076286,235.241929 396.020571,234.964286" id="XMLID_112_" fill="#DCA815" fill-rule="nonzero"></path>
                <path d="M396.620143,237.017857 L394.047,237.017857 C394.156286,237.297964 394.277143,237.571089 394.405714,237.839286 L396.977571,237.839286 C396.849,237.5715 396.729429,237.297554 396.620143,237.017857" id="XMLID_111_" fill="#DCA815" fill-rule="nonzero"></path>
                <path d="M396.330857,228.803571 L393.762429,228.803571 C393.678857,229.073411 393.600857,229.346536 393.535714,229.625 L396.110143,229.625 C396.175286,229.347357 396.247714,229.072589 396.330857,228.803571" id="XMLID_110_" fill="#DCA815" fill-rule="nonzero"></path>
                <path d="M397.184571,226.75 L394.613143,226.75 C394.471714,227.017375 394.338429,227.290911 394.216714,227.571429 L396.789857,227.571429 C396.911571,227.291321 397.043143,227.017375 397.184571,226.75" id="XMLID_109_" fill="#DCA815" fill-rule="nonzero"></path>
                <path d="M398.933571,224.285714 L396.359143,224.285714 C396.115286,224.546929 395.883429,224.820875 395.664,225.107143 L398.237571,225.107143 C398.457429,224.820875 398.689714,224.546929 398.933571,224.285714" id="XMLID_108_" fill="#DCA815" fill-rule="nonzero"></path>
                <path d="M401.554286,222.232143 L398.977286,222.232143 C398.539286,222.474464 398.119286,222.748821 397.719,223.053571 L400.294286,223.053571 C400.695,222.748821 401.115857,222.474464 401.554286,222.232143" id="XMLID_107_" fill="#DCA815" fill-rule="nonzero"></path>
                <path d="M397.936714,239.482143 L395.364,239.482143 C395.562857,239.766768 395.772857,240.040714 395.994857,240.303571 L398.569286,240.303571 C398.347286,240.040714 398.136,239.766768 397.936714,239.482143" id="XMLID_106_" fill="#DCA815" fill-rule="nonzero"></path>
                <path d="M397.213714,241.535714 C397.557857,241.832661 397.918286,242.10825 398.295429,242.357143 L400.872857,242.357143 C400.494,242.107839 400.129714,241.833893 399.784286,241.535714 L397.213714,241.535714 Z" id="XMLID_105_" fill="#DCA815" fill-rule="nonzero"></path>
                <rect id="Rectangle" fill="#83660E" x="0" y="0" width="59" height="34" rx="4"></rect>
                <text id="7" font-family="HKGrotesk-Bold, HK Grotesk" font-size="16" font-weight="bold" fill="#FED848">
                    <tspan x="38" y="22">7  </tspan>
                </text>
                <path d="M21.2857143,29 C15.4867143,29 10.7857143,23.8512857 10.7857143,17.5 C10.7857143,11.1487143 15.4867143,6 21.2857143,6 C27.0847143,6 31.7857143,11.1487143 31.7857143,17.5 C31.7857143,23.8512857 27.0847143,29 21.2857143,29" id="XMLID_99_" fill="#CDA407" fill-rule="nonzero"></path>
                <path d="M10.7857143,17.5 C10.7857143,11.6259643 14.8078571,6.78364286 20,6.08871429 C19.5782857,6.03244643 19.1497143,6 18.7142857,6 C12.9152857,6 8.21428571,11.1487143 8.21428571,17.5 C8.21428571,23.8512857 12.9152857,29 18.7142857,29 C19.1497143,29 19.5782857,28.9675536 20,28.9112857 C14.8078571,28.2163571 10.7857143,23.3740357 10.7857143,17.5" id="XMLID_132_" fill="#F4BF1A" fill-rule="nonzero"></path>
                <path d="M21.3221429,26.7509286 L21.2852857,26.7509286 C20.9852857,26.7509286 20.6831429,26.7336786 20.3874286,26.7 C20.1521429,26.6728929 19.9845714,26.4687679 20.0124286,26.2432857 C20.0407143,26.0178036 20.2554286,25.8605 20.489,25.8843214 C20.7512857,25.9143036 21.0191429,25.9295 21.2852857,25.9295 C21.5222857,25.9295 21.7322857,26.1135 21.7322857,26.3402143 C21.7322857,26.5669286 21.5595714,26.7509286 21.3221429,26.7509286 M23.8142857,26.3085893 C23.6411429,26.3085893 23.4778571,26.2071429 23.4131429,26.0424464 C23.3295714,25.8301071 23.4414286,25.593125 23.663,25.5134464 C23.9098571,25.4243214 24.1562857,25.3195893 24.3941429,25.2025357 C24.605,25.0982143 24.863,25.1783036 24.9714286,25.380375 C25.0794286,25.5820357 24.9962857,25.8296964 24.7854286,25.9331964 C24.5184286,26.064625 24.2428571,26.1812679 23.9651429,26.2818929 C23.9158571,26.2999643 23.8648571,26.3085893 23.8142857,26.3085893 M18.0135714,25.9948036 C17.9484286,25.9948036 17.882,25.9804286 17.8198571,25.9500357 C17.5562857,25.8214821 17.2952857,25.6773214 17.0445714,25.5196071 C16.8465714,25.3955714 16.7912857,25.1413393 16.9207143,24.9511786 C17.051,24.7618393 17.3158571,24.7084464 17.5142857,24.8324821 C17.7384286,24.9733571 17.972,25.1031429 18.2077143,25.2177321 C18.4185714,25.3204107 18.503,25.5676607 18.3958571,25.7697321 C18.3204286,25.9126607 18.1695714,25.9948036 18.0135714,25.9948036 M26.6321429,24.5334821 C26.5232857,24.5334821 26.414,24.4936429 26.3304286,24.414375 C26.1624286,24.2546071 26.1611429,23.994625 26.3278571,23.833625 C26.5142857,23.6537321 26.6955714,23.459875 26.8665714,23.2578036 C27.0161429,23.0820179 27.2861429,23.0553214 27.4695714,23.19825 C27.653,23.3411786 27.6812857,23.5999286 27.5317143,23.776125 C27.3427143,23.9987321 27.1425714,24.2127143 26.9364286,24.4119107 C26.8524286,24.4928214 26.7418571,24.5334821 26.6321429,24.5334821 M15.3958571,23.9551964 C15.272,23.9551964 15.149,23.9038571 15.0641429,23.8052857 C14.8781429,23.5876071 14.6994286,23.3576071 14.5335714,23.1214464 C14.4011429,22.9333393 14.453,22.677875 14.6492857,22.5509643 C14.8451429,22.4240536 15.1117143,22.4733393 15.2441429,22.6618571 C15.3954286,22.8770714 15.5578571,23.0865357 15.7271429,23.2840893 C15.8771429,23.4594643 15.8505714,23.7182143 15.6675714,23.862375 C15.5882857,23.9248036 15.4914286,23.9551964 15.3958571,23.9551964 M28.5161429,21.8453571 C28.4587143,21.8453571 28.4008571,21.8342679 28.3451429,21.8112679 C28.1278571,21.7205 28.0288571,21.4785893 28.1231429,21.2703571 C28.2307143,21.0346071 28.3288571,20.7898214 28.415,20.5438036 C28.4904286,20.3294107 28.7334286,20.2131786 28.958,20.2854643 C29.1821429,20.3581607 29.303,20.590625 29.2275714,20.8058393 C29.1332857,21.0740357 29.0261429,21.341 28.9091429,21.5985179 C28.8384286,21.7529464 28.6807143,21.8453571 28.5161429,21.8453571 M13.7621429,21.119625 C13.5838571,21.119625 13.4171429,21.0116071 13.3562857,20.8411607 C13.2615714,20.5750179 13.1775714,20.3010714 13.1064286,20.0267143 C13.049,19.8065714 13.1887143,19.5839643 13.4184286,19.5293393 C13.6472857,19.4734821 13.8808571,19.6081964 13.9378571,19.8283393 C14.0034286,20.0801071 14.0805714,20.331875 14.1675714,20.5758393 C14.2438571,20.7906429 14.1242857,21.0239286 13.9005714,21.0970357 C13.8551429,21.1122321 13.808,21.119625 13.7621429,21.119625 M29.3257143,18.6976429 C29.3145714,18.6976429 29.3034286,18.6972321 29.2922857,18.6964107 C29.0561429,18.67875 28.88,18.4811964 28.898,18.2548929 C28.9181429,18.006 28.9284286,17.7517679 28.9284286,17.5 C28.9284286,17.2732857 29.1204286,17.0761429 29.357,17.0761429 C29.5935714,17.0761429 29.7855714,17.2465893 29.7855714,17.4733036 L29.7855714,17.5 C29.7855714,17.773125 29.7744286,18.0483036 29.7525714,18.3185536 C29.7354286,18.5337679 29.5472857,18.6976429 29.3257143,18.6976429 M13.214,17.9152321 C12.9774286,17.9152321 12.7854286,17.73575 12.7854286,17.5090357 L12.7854286,17.5 C12.7854286,17.2198929 12.797,16.9381429 12.8197143,16.663375 C12.8385714,16.4374821 13.0438571,16.2699107 13.2808571,16.2863393 C13.517,16.3044107 13.6931429,16.502375 13.6742857,16.7282679 C13.6532857,16.9820893 13.6425714,17.2416607 13.6425714,17.5 C13.6425714,17.7267143 13.4505714,17.9152321 13.214,17.9152321 M29.0437143,15.4661429 C28.8521429,15.4661429 28.6777143,15.3421071 28.6288571,15.1560536 C28.5624286,14.9034643 28.4848571,14.6521071 28.3974286,14.4081429 C28.3207143,14.19375 28.4402857,13.9600536 28.664,13.8865357 C28.8881429,13.8121964 29.132,13.9271964 29.2082857,14.142 C29.3034286,14.4073214 29.3878571,14.6808571 29.4598571,14.9548036 C29.5177143,15.1749464 29.3784286,15.3979643 29.1491429,15.4534107 C29.1144286,15.4624464 29.0792857,15.4661429 29.0437143,15.4661429 M13.7565714,14.719875 C13.7107143,14.719875 13.6644286,14.7124821 13.6185714,14.6976964 C13.3944286,14.625 13.2744286,14.3917143 13.3502857,14.1769107 C13.445,13.9099464 13.5525714,13.6433929 13.6704286,13.3850536 C13.7655714,13.1768214 14.0175714,13.0827679 14.2348571,13.173125 C14.4517143,13.2638929 14.5507143,13.5062143 14.456,13.7140357 C14.3475714,13.9510179 14.249,14.1958036 14.1624286,14.4405893 C14.1011429,14.6118571 13.9352857,14.719875 13.7565714,14.719875 M27.6722857,12.5048929 C27.5347143,12.5048929 27.4001429,12.4416429 27.317,12.3241786 C27.1652857,12.1097857 27.0024286,11.9007321 26.8327143,11.7031786 C26.6822857,11.5282143 26.7084286,11.2690536 26.891,11.1248929 C27.0735714,10.9807321 27.344,11.0057857 27.4944286,11.18075 C27.6808571,11.3980179 27.86,11.6276071 28.0267143,11.8637679 C28.1595714,12.0514643 28.1081429,12.3069286 27.9122857,12.43425 C27.8385714,12.4818929 27.7554286,12.5048929 27.6722857,12.5048929 M15.3834286,11.8801964 C15.2882857,11.8801964 15.1922857,11.8498036 15.1125714,11.787375 C14.9291429,11.6440357 14.9021429,11.3852857 15.0521429,11.2095 C15.2411429,10.9877143 15.4417143,10.7741429 15.6482857,10.5749464 C15.8154286,10.4147679 16.0867143,10.4135357 16.2542857,10.5733036 C16.4222857,10.7334821 16.4231429,10.9930536 16.2564286,11.1540536 C16.0695714,11.3343571 15.8874286,11.5278036 15.7155714,11.7294643 C15.6315714,11.8288571 15.5081429,11.8801964 15.3834286,11.8801964 M25.2757143,10.2250179 C25.1955714,10.2250179 25.1145714,10.2036607 25.0425714,10.1584821 C24.8184286,10.0184286 24.5844286,9.88946429 24.3474286,9.774875 C24.1365714,9.67260714 24.0517143,9.42576786 24.1584286,9.22328571 C24.2651429,9.021625 24.5222857,8.93907143 24.734,9.04175 C24.9988571,9.16948214 25.2598571,9.31364286 25.5101429,9.470125 C25.7085714,9.59416071 25.7647143,9.84880357 25.6352857,10.0385536 C25.553,10.1597143 25.4162857,10.2250179 25.2757143,10.2250179 M17.9981429,9.83483929 C17.8421429,9.83483929 17.6917143,9.75310714 17.6158571,9.61058929 C17.5082857,9.40851786 17.5922857,9.16126786 17.8031429,9.05817857 C18.0701429,8.92798214 18.3461429,8.81092857 18.6242857,8.71153571 C18.8454286,8.63185714 19.0927143,8.73946429 19.1758571,8.95221429 C19.2585714,9.16455357 19.1462857,9.401125 18.9242857,9.48080357 C18.6765714,9.56951786 18.4301429,9.67342857 18.1918571,9.79007143 C18.1301429,9.82046429 18.0632857,9.83483929 17.9981429,9.83483929 M22.115,9.1165 C22.0982857,9.1165 22.0815714,9.11567857 22.0648571,9.113625 C21.8068571,9.084875 21.5445714,9.0705 21.2852857,9.0705 C21.0487143,9.0705 20.8477143,8.8865 20.8477143,8.65978571 C20.8477143,8.43307143 21.0307143,8.24907143 21.2672857,8.24907143 L21.2852857,8.24907143 C21.5775714,8.24907143 21.8732857,8.2655 22.1638571,8.29794643 C22.3987143,8.32382143 22.5675714,8.52753571 22.5401429,8.75301786 C22.5152857,8.96248214 22.3292857,9.1165 22.115,9.1165" id="XMLID_115_" fill="#876B16" fill-rule="nonzero"></path>
                <path d="M10.7848571,17.9107143 L8.21428571,17.9107143 C8.22285714,18.187125 8.23914286,18.4610714 8.26528571,18.7321429 L10.838,18.7321429 C10.8114286,18.4610714 10.7938571,18.187125 10.7848571,17.9107143" id="XMLID_114_" fill="#DCA815" fill-rule="nonzero"></path>
                <path d="M10.883,15.8571429 L8.31328571,15.8571429 C8.27771429,16.1278036 8.252,16.4021607 8.23442857,16.6785714 L10.8054286,16.6785714 C10.8234286,16.4021607 10.8474286,16.1278036 10.883,15.8571429" id="XMLID_113_" fill="#DCA815" fill-rule="nonzero"></path>
                <path d="M11.0205714,19.9642857 L8.44871429,19.9642857 C8.50442857,20.2419286 8.56871429,20.515875 8.642,20.7857143 L11.213,20.7857143 C11.1401429,20.515875 11.0762857,20.2419286 11.0205714,19.9642857" id="XMLID_112_" fill="#DCA815" fill-rule="nonzero"></path>
                <path d="M11.6201429,22.0178571 L9.047,22.0178571 C9.15628571,22.2979643 9.27714286,22.5710893 9.40571429,22.8392857 L11.9775714,22.8392857 C11.849,22.5715 11.7294286,22.2975536 11.6201429,22.0178571" id="XMLID_111_" fill="#DCA815" fill-rule="nonzero"></path>
                <path d="M11.3308571,13.8035714 L8.76242857,13.8035714 C8.67885714,14.0734107 8.60085714,14.3465357 8.53571429,14.625 L11.1101429,14.625 C11.1752857,14.3473571 11.2477143,14.0725893 11.3308571,13.8035714" id="XMLID_110_" fill="#DCA815" fill-rule="nonzero"></path>
                <path d="M12.1845714,11.75 L9.61314286,11.75 C9.47171429,12.017375 9.33842857,12.2909107 9.21671429,12.5714286 L11.7898571,12.5714286 C11.9115714,12.2913214 12.0431429,12.017375 12.1845714,11.75" id="XMLID_109_" fill="#DCA815" fill-rule="nonzero"></path>
                <path d="M13.9335714,9.28571429 L11.3591429,9.28571429 C11.1152857,9.54692857 10.8834286,9.820875 10.664,10.1071429 L13.2375714,10.1071429 C13.4574286,9.820875 13.6897143,9.54692857 13.9335714,9.28571429" id="XMLID_108_" fill="#DCA815" fill-rule="nonzero"></path>
                <path d="M16.5542857,7.23214286 L13.9772857,7.23214286 C13.5392857,7.47446429 13.1192857,7.74882143 12.719,8.05357143 L15.2942857,8.05357143 C15.695,7.74882143 16.1158571,7.47446429 16.5542857,7.23214286" id="XMLID_107_" fill="#DCA815" fill-rule="nonzero"></path>
                <path d="M12.9367143,24.4821429 L10.364,24.4821429 C10.5628571,24.7667679 10.7728571,25.0407143 10.9948571,25.3035714 L13.5692857,25.3035714 C13.3472857,25.0407143 13.136,24.7667679 12.9367143,24.4821429" id="XMLID_106_" fill="#DCA815" fill-rule="nonzero"></path>
                <path d="M12.2137143,26.5357143 C12.5578571,26.8326607 12.9182857,27.10825 13.2954286,27.3571429 L15.8728571,27.3571429 C15.494,27.1078393 15.1297143,26.8338929 14.7842857,26.5357143 L12.2137143,26.5357143 Z" id="XMLID_105_" fill="#DCA815" fill-rule="nonzero"></path>
                <text id="Swiggy" font-family="HKGrotesk-Medium, HK Grotesk" font-size="16" font-weight="400" fill="#FFFFFF">
                    <tspan x="121" y="161">Swiggy</tspan>
                </text>
                <text id="₹165" font-family="PingFangSC-Medium, PingFang SC" font-size="16" font-weight="400" fill="#FF5F5F">
                    <tspan x="350.896" y="158">₹</tspan>
                    <tspan x="360.496" y="158" font-family="HKGrotesk-Medium, HK Grotesk">165</tspan>
                </text>
                <text id="Today,-11:43AM" opacity="0.5" font-family="HKGrotesk-SemiBold, HK Grotesk" font-size="10" font-weight="500" fill="#FFFFFF">
                    <tspan x="121" y="185">Today, 11:43AM</tspan>
                </text>
                <rect id="Rectangle-Copy-5" fill="#D8D8D8" opacity="0.200000003" x="397" y="145" width="35" height="34" rx="4"></rect>
                <polygon id="Path" fill="#FFFFFF" fill-rule="nonzero" points="416.6875 153.5 419.203125 155.94375 416.03125 159.025 417.5625 160.5125 420.734375 157.43125 423.25 159.875 423.25 153.5"></polygon>
                <polygon id="Path" fill="#FFFFFF" fill-rule="nonzero" points="412.3125 153.5 405.75 153.5 405.75 159.875 408.265625 157.43125 413.40625 162.425 413.40625 170.5 415.59375 170.5 415.59375 161.575 409.796875 155.94375"></polygon>
                <rect id="Rectangle-Copy-7" fill="#499722" opacity="0.300000012" x="60" y="145" width="48" height="48" rx="4"></rect>
                <path d="M95.9069937,176.529516 L87.0310674,168.076211 L76.6610463,158.2 L75.8506232,158.2 L75.6851432,158.600463 C75.2483874,159.657474 75.0617747,160.738568 75.1455537,161.726737 C75.2410484,162.853137 75.69036,163.828337 76.4449895,164.547032 L84.5403789,172.256926 L85.6081516,171.24 L93.0923305,179.210232 C93.8368358,179.919284 95.1182779,179.961389 95.9069937,179.210232 C96.6830653,178.471116 96.6830653,177.268589 95.9069937,176.529516 Z" id="Path" fill="#499722" fill-rule="nonzero"></path>
                <path d="M80.7890274,170.471242 L74.4487516,176.5096 C73.6727684,177.248632 73.6727684,178.4512 74.4487516,179.190232 C75.1859179,179.892295 76.4611705,179.954274 77.2634147,179.190232 L83.6037347,173.151832 L80.7890274,170.471242 Z" id="Path" fill="#499722" fill-rule="nonzero"></path>
                <path d="M95.5343432,161.789432 L91.9377726,165.214695 L90.9994926,164.321137 L94.5960632,160.895832 L93.6578274,160.002274 L90.0613011,163.427537 L89.1230653,162.533979 L92.7196358,159.108716 L91.7814442,158.2152 L87.0902653,162.682989 C86.5163684,163.229558 86.1736926,163.955284 86.1252379,164.726568 C86.1129916,164.921979 86.0664821,165.114189 85.9893347,165.297011 L89.0367221,168.199284 C89.2286842,168.125726 89.4305495,168.081474 89.6356863,168.069811 C90.4455347,168.023789 91.2075474,167.697347 91.7814442,167.150779 L96.4726232,162.683032 L95.5343432,161.789432 Z" id="Path" fill="#499722" fill-rule="nonzero"></path>
            </g>
        </g>
    </g>
</svg>