<?xml version="1.0" encoding="UTF-8"?>
<svg width="196px" height="48px" viewBox="0 0 196 48" version="1.1" xmlns="http://www.w3.org/2000/svg" xmlns:xlink="http://www.w3.org/1999/xlink">
    <defs>
    <style>
        @font-face {
            font-family: 'HK Grotesk';
            font-weight: 600;
            font-style: normal;
            src: url("/fonts/HKGrotesk-Medium.otf") format("opentype");
        }
    </style>
    </defs>
    <!-- Generator: sketchtool 61.2 (101010) - https://sketch.com -->
    <title>BA0A4563-002A-4450-8119-7E4F6B45872D</title>
    <desc>Created with sketchtool.</desc>
    <defs>
        <linearGradient x1="13.4977379%" y1="5.2425079%" x2="192.556719%" y2="182.519195%" id="linearGradient-1">
            <stop stop-color="#008AFC" offset="0%"></stop>
            <stop stop-color="#00335D" offset="100%"></stop>
        </linearGradient>
        <path d="M12.2674321,0 L35.629674,0 C42.4047897,0 47.8971061,5.50411517 47.8971061,12.2937853 L47.8971061,35.7062147 C47.8971061,42.4958848 42.4047897,48 35.629674,48 L12.2674321,48 C5.49231642,48 1.42108547e-14,42.4958848 1.42108547e-14,35.7062147 L1.42108547e-14,12.2937853 C1.42108547e-14,5.50411517 5.49231642,0 12.2674321,0 Z" id="path-2"></path>
    </defs>
    <g id="a" stroke="none" stroke-width="1" fill="none" fill-rule="evenodd">
        <g id="Artboard-Copy" transform="translate(-260.000000, -96.000000)">
            <g id="Group-1" transform="translate(260.000000, 96.000000)">
                <g id="Group-3">
                    <g id="Rectangle">
                        <use fill="#0047CC" xlink:href="#path-2"></use>
                        <use fill="url(#linearGradient-1)" xlink:href="#path-2"></use>
                    </g>
                    <path d="M21.607717,36.3157895 C19.3569019,36.3157895 17.3837169,35.7160212 15.6881029,34.5164666 C13.9924888,33.316912 12.8595956,31.8212873 12.2893891,30.0295476 L16.6109325,28.070791 C17.4812477,30.5306371 19.0567946,31.7605417 21.3376206,31.7605417 C22.5080444,31.7605417 23.4008544,31.4872296 24.0160772,30.9405971 C24.6313,30.3939646 24.9389068,29.7866043 24.9389068,29.118498 C24.9389068,28.4503917 24.6237974,27.9493194 23.9935691,27.6152662 C23.3633409,27.2812131 22.3279815,26.9016129 20.8874598,26.4764543 C19.3869164,26.0816642 18.1414841,25.664104 17.1511254,25.2237612 C16.1607668,24.7834183 15.3054698,24.100138 14.585209,23.1738997 C13.8649482,22.2476613 13.5048232,21.0253487 13.5048232,19.5069252 C13.5048232,17.4418692 14.2925966,15.8323644 15.8681672,14.6783626 C17.4437378,13.5243607 19.3719071,12.9473684 21.6527331,12.9473684 C23.5434178,12.9473684 25.208996,13.3725206 26.6495177,14.2228378 C28.0900394,15.073155 29.2304352,16.2726915 30.0707395,17.8214835 L25.8842444,20.1446599 C25.4340814,19.2943427 24.8638834,18.6034704 24.1736334,18.0720222 C23.4833835,17.5405739 22.5830709,17.2748538 21.4726688,17.2748538 C20.6323645,17.2748538 19.9496275,17.4570619 19.4244373,17.8214835 C18.8992471,18.1859052 18.6366559,18.6414254 18.6366559,19.1880579 C18.6366559,19.7954273 18.9592679,20.2661315 19.6045016,20.6001847 C20.2497353,20.9342378 21.2475817,21.28347 22.5980707,21.6478917 C24.1586359,22.1034187 25.4490839,22.5589389 26.4694534,23.014466 C27.4898229,23.469993 28.3751302,24.1684574 29.1254019,25.10988 C29.8756736,26.0513025 30.2508039,27.2812071 30.2508039,28.7996307 C30.2508039,30.4698965 29.8381606,31.8668252 29.0128617,32.9904586 C28.1875629,34.114092 27.1146904,34.9492124 25.7942122,35.4958449 C24.473734,36.0424773 23.0782496,36.3157895 21.607717,36.3157895 Z" id="Path-Copy" fill="#FFFFFF" fill-rule="nonzero"></path>
                    <ellipse id="Oval" fill="#FFFFFF" cx="34.6623794" cy="34.1052632" rx="2.20578778" ry="2.21052632"></ellipse>
                </g>
                <path d="M65.526923,36.3157895 C63.3235839,36.3157895 61.3920189,35.7160212 59.7321701,34.5164666 C58.0723213,33.316912 56.9633239,31.8212873 56.4051447,30.0295476 L60.6355346,28.070791 C61.4874924,30.5306371 63.0298066,31.7605417 65.2625236,31.7605417 C66.4082599,31.7605417 67.282238,31.4872296 67.884484,30.9405971 C68.48673,30.3939646 68.7878485,29.7866043 68.7878485,29.118498 C68.7878485,28.4503917 68.4793857,27.9493194 67.8624507,27.6152662 C67.2455158,27.2812131 66.231995,26.9016129 64.821858,26.4764543 C63.3529652,26.0816642 62.1338026,25.664104 61.1643334,25.2237612 C60.1948642,24.7834183 59.3576079,24.100138 58.6525393,23.1738997 C57.9474708,22.2476613 57.5949419,21.0253487 57.5949419,19.5069252 C57.5949419,17.4418692 58.366099,15.8323644 59.9084363,14.6783626 C61.4507737,13.5243607 63.3382726,12.9473684 65.5709895,12.9473684 C67.4217944,12.9473684 69.0522408,13.3725206 70.4623779,14.2228378 C71.8725149,15.073155 72.9888566,16.2726915 73.8114366,17.8214835 L69.7132463,20.1446599 C69.2725785,19.2943427 68.7144076,18.6034704 68.038717,18.0720222 C67.3630263,17.5405739 66.4817039,17.2748538 65.3947233,17.2748538 C64.5721433,17.2748538 63.9038072,17.4570619 63.3896947,17.8214835 C62.8755823,18.1859052 62.6185299,18.6414254 62.6185299,19.1880579 C62.6185299,19.7954273 62.9343371,20.2661315 63.565961,20.6001847 C64.1975848,20.9342378 65.1743839,21.28347 66.4963873,21.6478917 C68.0240358,22.1034187 69.2872646,22.5589389 70.2861116,23.014466 C71.2849587,23.469993 72.1515924,24.1684574 72.8860388,25.10988 C73.6204851,26.0513025 73.9877028,27.2812071 73.9877028,28.7996307 C73.9877028,30.4698965 73.5837634,31.8668252 72.7758724,32.9904586 C71.9679814,34.114092 70.9177388,34.9492124 69.6251132,35.4958449 C68.3324876,36.0424773 66.9664378,36.3157895 65.526923,36.3157895 Z M86.2969206,12.9473684 C89.249562,12.9473684 91.5769918,13.7293448 93.2792799,15.293321 C94.981568,16.8572972 95.8326992,18.9906503 95.8326992,21.6934441 L95.8326992,35.8602647 L90.8614403,35.8602647 L90.4095076,32.9449061 C89.7466698,34.0078026 88.8202171,34.835331 87.6301219,35.4275162 C86.4400267,36.0197013 85.1068387,36.3157895 83.6305181,36.3157895 C82.0939394,36.3157895 80.7155587,36.0045173 79.4953345,35.3819637 C78.2751103,34.75941 77.3185291,33.8863296 76.6255622,32.7626962 C75.9325954,31.6390628 75.5861172,30.3787902 75.5861172,28.9818406 C75.5861172,27.6456279 75.8723383,26.4916433 76.4447892,25.5198523 C77.0172401,24.5480612 77.8457749,23.8192289 78.9304187,23.3333333 C80.3766103,22.665227 82.3500298,22.3311788 84.8507362,22.3311788 L90.4095076,22.3311788 L90.4095076,21.6934441 C90.4095076,20.4787053 90.0329009,19.5145209 89.279676,18.8008618 C88.5264512,18.0872028 87.5020808,17.7303786 86.2065341,17.7303786 C85.0616324,17.7303786 83.9770049,18.0188747 82.9526191,18.5958757 C81.9282334,19.1728766 81.0093129,20.007997 80.1958301,21.1012619 L76.2640161,17.7759311 C78.9153675,14.5568732 82.2596356,12.9473684 86.2969206,12.9473684 Z M84.4644893,31.5358852 C86.1243895,31.5358852 87.5460419,31.0201841 88.7294892,29.9887664 C89.9129365,28.9573487 90.5046513,27.7027326 90.5046513,26.2248804 L85.5710839,26.2248804 C83.8422541,26.2248804 82.6192646,26.4709592 81.9020813,26.963124 L81.8363272,27.0099854 C81.2215494,27.4410257 80.9141651,28.0721822 80.9141651,28.9034741 C80.9141651,29.7039774 81.229234,30.342831 81.8593813,30.8200541 C82.4895286,31.2972772 83.3578892,31.5358852 84.4644893,31.5358852 Z M96.8983088,13.4784689 L102.74959,13.4784689 L108.064876,28.7263313 L113.469495,13.4784689 L119.27611,13.4784689 L110.29819,35.784689 L105.876229,35.784689 L96.8983088,13.4784689 Z M138.989887,24.3354878 C138.989887,25.0035942 138.944813,25.7020585 138.854664,26.4309018 L123.619452,26.4309018 C123.739651,27.9493253 124.265516,29.1488619 125.197062,30.0295476 C126.128608,30.9102332 127.450783,31.3505694 129.163626,31.3505694 C131.327218,31.3505694 133.100134,30.545817 134.482428,28.9362881 L138.223619,32.261619 C136.991574,33.6282001 135.631838,34.6455286 134.144369,35.313635 C132.6569,35.9817413 130.981644,36.3157895 129.118552,36.3157895 C126.684512,36.3157895 124.648663,35.7843492 123.010945,34.7214528 C121.373226,33.6585563 120.163737,32.2540356 119.38244,30.5078486 C118.601143,28.7616615 118.2105,26.8408846 118.2105,24.7454601 C118.2105,22.6804042 118.593631,20.7520352 119.359903,18.9602955 C120.126174,17.1685557 121.298102,15.718483 122.875721,14.6100339 C124.453339,13.5015847 126.414064,12.9473684 128.757955,12.9473684 C130.981646,12.9473684 132.859735,13.4484407 134.392279,14.4506002 C135.924823,15.4527597 137.074213,16.8193204 137.840485,18.5503232 C138.606757,20.281326 138.989887,22.2096949 138.989887,24.3354878 Z M133.661839,21.9760766 C133.632109,20.5247452 133.141558,19.3652751 132.190172,18.4976313 C131.238786,17.6299876 130.049571,17.1961722 128.622492,17.1961722 C127.10622,17.1961722 125.924438,17.6615378 125.07711,18.5922829 C124.229782,19.523028 123.716933,20.6509479 123.538548,21.9760766 L133.661839,21.9760766 Z M164.654933,12.9473684 C167.186575,12.9473684 169.047606,13.754279 170.238081,15.3681244 C171.428556,16.9819698 172.023784,19.2352296 172.023784,22.1279713 L172.023784,35.784689 L169.7634,35.784689 L169.7634,22.7217416 C169.7634,20.5597978 169.401743,18.7252181 168.678416,17.2179474 C167.95509,15.7106767 166.508458,14.9570526 164.338479,14.9570526 C162.258915,14.9570526 160.72187,15.779188 159.727296,17.4234833 C158.732722,19.0677786 158.235442,21.2905889 158.235442,24.0919809 L158.235442,35.784689 L155.975058,35.784689 L155.975058,22.6303923 C155.975058,20.2248492 155.538055,18.3445953 154.664036,16.9895742 C153.790016,15.634553 152.403661,14.9570526 150.504929,14.9570526 C148.455504,14.9570526 146.941062,15.779188 145.961557,17.4234833 C144.982053,19.0677786 144.492308,21.2905889 144.492308,24.0919809 L144.492308,35.784689 L142.231924,35.784689 L142.186716,13.2670909 L144.356685,13.2670909 L144.356685,16.7840383 C144.989595,15.474692 145.863602,14.5079218 146.97873,13.8836986 C148.093858,13.2594753 149.359661,12.9473684 150.776175,12.9473684 C154.211976,12.9473684 156.412061,14.5916391 157.376496,17.8802297 C158.039546,16.2663843 158.988897,15.0407937 160.22458,14.2034211 C161.460263,13.3660484 162.937032,12.9473684 164.654933,12.9473684 Z M185.587963,12.9473684 C187.583986,12.9473684 189.371442,13.4353405 190.950386,14.4112992 C192.529329,15.387258 193.765653,16.7385652 194.659394,18.4652615 C195.553136,20.1919577 196,22.1513532 196,24.3435067 C196,26.5356602 195.560584,28.5025629 194.681738,30.2442739 C193.802892,31.9859849 192.574016,33.3447994 190.995072,34.3207582 C189.416129,35.2967169 187.613777,35.784689 185.587963,35.784689 C183.562149,35.784689 181.767245,35.2967169 180.203197,34.3207582 C178.63915,33.3447994 177.417721,31.9934922 176.538875,30.266796 C175.660029,28.5400997 175.220613,26.5656897 175.220613,24.3435067 C175.220613,22.1513532 175.660029,20.1919577 176.538875,18.4652615 C177.417721,16.7385652 178.63915,15.387258 180.203197,14.4112992 C181.767245,13.4353405 183.562149,12.9473684 185.587963,12.9473684 Z M185.565178,15.0717703 C183.068068,15.0717703 181.074922,15.9539714 179.585682,17.7183999 C178.096441,19.4828285 177.351832,21.7795933 177.351832,24.6087632 C177.351832,27.4683543 178.096441,29.7803294 179.585682,31.544758 C181.074922,33.3091865 183.068068,34.1913876 185.565178,34.1913876 C187.21989,34.1913876 188.679023,33.7807078 189.942621,32.9593359 C191.206219,32.1379639 192.176467,31.0047919 192.853395,29.5597858 C193.530322,28.1147796 193.868781,26.4644553 193.868781,24.6087632 C193.868781,22.7226499 193.522801,21.0647204 192.830831,19.6349248 C192.13886,18.2051293 191.168612,17.0871676 189.920057,16.2810063 C188.671502,15.4748449 187.21989,15.0717703 185.565178,15.0717703 Z" id="savemo" fill="#008AFC" fill-rule="nonzero"></path>
            </g>
        </g>
    </g>
</svg>