<svg xmlns="http://www.w3.org/2000/svg" width="140" height="24" fill="none" viewBox="0 0 140 24">
    <path fill="#fff" fill-rule="evenodd" d="M9.148 23.436c-2.21 0-4.147-.601-5.811-1.804C1.672 20.429.56 18.929 0 17.132l4.243-1.965c.854 2.467 2.4 3.7 4.64 3.7 1.15 0 2.026-.273 2.63-.822.604-.548.906-1.157.906-1.827 0-.67-.31-1.172-.928-1.508-.62-.335-1.636-.715-3.05-1.142-1.473-.396-2.696-.814-3.668-1.256-.972-.442-1.812-1.127-2.52-2.056-.706-.929-1.06-2.155-1.06-3.677 0-2.071.774-3.686 2.32-4.843C5.06.579 6.953 0 9.193 0c1.856 0 3.49.426 4.905 1.28 1.414.852 2.534 2.055 3.359 3.608l-4.11 2.33c-.442-.853-1.002-1.545-1.68-2.078-.677-.533-1.561-.8-2.651-.8-.825 0-1.496.183-2.011.548-.516.366-.774.823-.774 1.37 0 .61.317 1.082.95 1.417.634.335 1.614.685 2.94 1.05 1.532.458 2.798.914 3.8 1.371 1.002.457 1.871 1.158 2.608 2.102.736.944 1.105 2.177 1.105 3.7 0 1.675-.405 3.076-1.216 4.203a7.332 7.332 0 0 1-3.16 2.513 10.444 10.444 0 0 1-4.11.822zM29.978 0c2.962 0 5.296.784 7.003 2.353 1.707 1.568 2.561 3.708 2.561 6.418V22.98h-4.986l-.453-2.923c-.665 1.066-1.594 1.895-2.787 2.49-1.194.593-2.531.89-4.012.89-1.54 0-2.923-.312-4.147-.936-1.224-.625-2.183-1.5-2.878-2.627-.695-1.127-1.042-2.391-1.042-3.792 0-1.34.287-2.497.86-3.472.575-.975 1.406-1.706 2.494-2.193 1.45-.67 3.43-1.005 5.937-1.005h5.575v-.64c0-1.218-.378-2.185-1.133-2.9-.755-.716-1.783-1.074-3.082-1.074a6.55 6.55 0 0 0-3.264.868c-1.027.579-1.948 1.416-2.764 2.513l-3.944-3.335C22.576 1.614 25.93 0 29.98 0zm2.44 17.09c-1.187 1.035-2.613 1.552-4.277 1.552-1.11 0-1.98-.239-2.613-.717-.632-.48-.948-1.12-.948-1.923 0-.833.308-1.466.925-1.899l.066-.047c.72-.493 1.946-.74 3.68-.74h4.948c0 1.482-.594 2.74-1.78 3.775zM40.611.534h5.868l5.33 15.292L57.23.533h5.823l-9.003 22.37h-4.435L40.61.534zm42.078 12.99c.09-.731.135-1.432.135-2.102 0-2.132-.384-4.066-1.152-5.802-.769-1.736-1.921-3.106-3.459-4.111C76.677.503 74.793 0 72.563 0c-2.35 0-4.317.556-5.9 1.667a10.061 10.061 0 0 0-3.525 4.363c-.769 1.797-1.153 3.731-1.153 5.802 0 2.102.392 4.028 1.175 5.78.784 1.75 1.997 3.16 3.64 4.225 1.642 1.066 3.683 1.6 6.124 1.6 1.869 0 3.55-.336 5.04-1.006 1.493-.67 2.856-1.69 4.092-3.06l-3.752-3.336c-1.386 1.614-3.165 2.422-5.334 2.422-1.718 0-3.044-.442-3.978-1.325-.935-.884-1.462-2.087-1.583-3.61h15.28zM77.48 9.055c-.03-1.456-.522-2.618-1.476-3.489-.954-.87-2.147-1.305-3.578-1.305-1.52 0-2.706.467-3.556 1.4-.85.934-1.364 2.065-1.543 3.394h10.153zm36.682-6.627C112.969.809 111.103 0 108.564 0c-1.723 0-3.204.42-4.443 1.26-1.24.84-2.192 2.069-2.857 3.687C100.297 1.65 98.091 0 94.644 0c-1.42 0-2.69.313-3.808.939-1.118.626-1.994 1.596-2.63 2.909V.32h-2.175l.045 22.583h2.267V11.177c0-2.81.491-5.039 1.473-6.688.983-1.649 2.501-2.473 4.557-2.473 1.904 0 3.294.679 4.171 2.038.877 1.359 1.315 3.245 1.315 5.657v13.193h2.267V11.177c0-2.81.499-5.039 1.496-6.688s2.539-2.473 4.625-2.473c2.176 0 3.627.755 4.352 2.267.726 1.512 1.088 3.352 1.088 5.52v13.1h2.267V9.208c0-2.9-.597-5.16-1.791-6.78zm15.395 20.476c-2.032 0-3.832-.49-5.401-1.469-1.568-.978-2.793-2.334-3.675-4.065-.881-1.732-1.322-3.712-1.322-5.94 0-2.2.441-4.164 1.322-5.896.882-1.732 2.107-3.087 3.675-4.066C125.726.49 127.526 0 129.558 0c2.002 0 3.794.49 5.378 1.468 1.583.979 2.823 2.334 3.72 4.066.896 1.732 1.344 3.697 1.344 5.895 0 2.199-.441 4.171-1.322 5.918-.881 1.747-2.114 3.11-3.697 4.088-1.584.98-3.392 1.469-5.423 1.469zm-6.02-4.253c1.494 1.77 3.493 2.655 5.997 2.655 1.659 0 3.123-.412 4.39-1.236 1.267-.824 2.24-1.96 2.919-3.41.679-1.449 1.019-3.104 1.019-4.965 0-1.891-.347-3.554-1.041-4.988-.694-1.434-1.667-2.555-2.92-3.364-1.252-.808-2.708-1.212-4.367-1.212-2.504 0-4.503.884-5.997 2.654-1.494 1.77-2.24 4.073-2.24 6.91 0 2.868.746 5.187 2.24 6.956z" clip-rule="evenodd"/>
</svg>
